<svg width="62" height="82" viewBox="0 0 62 82" fill="none" xmlns="http://www.w3.org/2000/svg">
<path d="M53.0795 0.115242C52.0203 0.454849 50.91 1.3391 50.1698 2.42841C49.9529 2.7552 49.838 2.87053 49.7678 2.8449C49.2 2.62064 47.7579 2.46685 46.7944 2.51811C44.995 2.61423 43.2978 3.05636 41.4537 3.90217L40.637 4.28022L39.7947 3.95984C38.6909 3.54334 37.0319 3.01791 35.7876 2.69753C34.8815 2.46044 32.9099 2.04395 32.3229 1.95424L32.074 1.9222L32.291 2.19132C34.856 5.36311 36.598 8.0287 36.9936 9.38071C37.0638 9.63062 37.1531 10.2137 37.1914 10.6943C37.3381 12.5781 37.6636 13.975 38.2123 15.0835C38.7866 16.2561 39.0035 17.2942 39.0035 18.864C39.0035 19.9213 38.9333 20.5429 38.7164 21.4271C38.4994 22.3178 38.4165 22.5036 38.1613 22.6958C37.5806 23.138 36.4002 24.2529 35.6728 25.0474C31.5444 29.552 28.7624 34.9857 27.4671 41.0986C26.293 46.6156 26.4462 52.7349 27.9074 59.008C28.0286 59.5142 28.1179 59.9371 28.1116 59.9499C28.0988 59.9564 27.9074 59.9179 27.684 59.8666C23.1218 58.7902 18.1448 58.5146 13.9654 59.1105C9.83708 59.7 6.18728 61.1418 3.68603 63.1602C3.02881 63.692 1.9377 64.839 1.53571 65.4349C0.463745 66.9984 -0.0850003 69.0232 0.0107111 71.048C0.214895 75.2002 2.74168 78.0772 8.03132 80.1725C11.5854 81.5822 14.8906 82.3063 15.7903 81.8769C16.0456 81.7552 16.2242 81.3643 16.2497 80.8453C16.3135 79.8137 15.6755 79.0127 14.2334 78.2951C13.6336 77.9939 13.3082 77.8722 12.1597 77.5262C10.2008 76.9238 8.75873 76.0908 7.34858 74.7452C6.52546 73.9571 5.95119 73.201 5.54283 72.368C5.14722 71.567 5.02599 71.1121 5.02599 70.388C5.03237 69.4717 5.2876 68.8566 5.97034 68.1517C7.18268 66.8958 9.40956 66.2166 11.8917 66.3448C13.1742 66.4089 13.6272 66.4729 18.2086 67.2034C20.6333 67.5943 22.0243 67.7545 25.387 68.0428C30.2172 68.4529 31.219 68.4978 34.671 68.4529C36.8468 68.4209 38.0017 68.4337 39.1375 68.4978C41.4091 68.6323 43.1957 68.6131 43.9422 68.4465L44.5356 68.3183L45.0908 68.4914C45.8564 68.7413 46.9731 68.9335 47.8791 68.9783C48.7916 69.0296 49.7934 68.9014 50.5591 68.6515C51.0695 68.4849 51.0695 68.4849 52.1351 68.549C54.7066 68.7156 56.7867 68.5554 57.5205 68.1389C58.4329 67.6071 58.5669 65.7937 57.7693 64.698C57.4822 64.3072 57.1121 64.0957 56.4995 63.974C55.8615 63.8522 55.6381 63.7241 55.4595 63.3652C55.2489 62.9487 55.2681 62.7309 55.5616 62.3656C56.7292 60.8791 57.8459 58.6748 58.5541 56.445C59.8813 52.2608 59.8877 47.3909 58.5605 42.7966L58.2925 41.8675L58.3691 41.0666C58.4712 40.0221 58.7073 38.3369 58.9817 36.7286C59.658 32.7751 60.6024 29.4367 61.719 27.021C61.9423 26.5468 61.9487 26.4956 61.987 25.5793C62.0125 25.0218 61.9998 24.3041 61.9551 23.8364C61.7764 21.8821 61.4574 21.0106 59.7665 17.9029C58.1841 14.981 57.6034 13.661 57.0674 11.7515C56.7165 10.5021 56.5314 9.45119 56.3017 7.38793C55.9891 4.60701 55.7594 3.35751 55.3063 2.06957C55.0575 1.34551 54.7831 0.832893 54.4641 0.467659C54.0302 -0.0257263 53.7431 -0.102615 53.0795 0.115242Z" fill="black"/>
</svg>
