<?xml version="1.0" encoding="UTF-8" standalone="no"?>
<svg
   viewBox="0 0 512 512"
   version="1.1"
   id="svg4"
   sodipodi:docname="dislike.svg"
   inkscape:version="1.1.2 (b8e25be833, 2022-02-05)"
   xmlns:inkscape="http://www.inkscape.org/namespaces/inkscape"
   xmlns:sodipodi="http://sodipodi.sourceforge.net/DTD/sodipodi-0.dtd"
   xmlns="http://www.w3.org/2000/svg"
   xmlns:svg="http://www.w3.org/2000/svg">
  <defs
     id="defs8" />
  <sodipodi:namedview
     id="namedview6"
     pagecolor="#505050"
     bordercolor="#ffffff"
     borderopacity="1"
     inkscape:pageshadow="0"
     inkscape:pageopacity="0"
     inkscape:pagecheckerboard="1"
     showgrid="false"
     inkscape:zoom="0.19091797"
     inkscape:cx="-311.65217"
     inkscape:cy="1026.6189"
     inkscape:window-width="1024"
     inkscape:window-height="577"
     inkscape:window-x="-8"
     inkscape:window-y="-8"
     inkscape:window-maximized="1"
     inkscape:current-layer="svg4" />
  <!--! Font Awesome Pro 6.1.1 by @fontawesome - https://fontawesome.com License - https://fontawesome.com/license (Commercial License) Copyright 2022 Fonticons, Inc. -->
  <path
     d="m 128,64.9 v 224 C 128,306.57 113.67,320 96,320 H 32 C 14.33,320 0,305.67 0,288.9 V 65.8 C 0,48.13 14.33,34.7 32,34.7 h 64 c 17.7,-1.8 32,11.7 32,30.2 z m 384,223 c 0,26.5 -21.48,47.98 -48,47.98 H 317.5 c 22.77,37.91 34.52,80.88 34.52,96.02 C 352,455.48 333.5,480 302.5,480 239.37,480 276.14,403.85 194.3,338.4 L 178,325.4 C 166.2,315.9 160.2,302 160.1,288 c -0.0234,-0.0234 0,0 0,0 L 160,128 c 0,-15.1 7.113,-29.33 19.2,-38.39 L 213.34,64.02 C 241,43.2 274.7,32 309.3,32 H 368 c 26.52,0 48,21.47 48,47.98 0,3.635 -0.4805,7.143 -1.246,10.55 C 434,96.8 448,114.6 448,136 c 0,9.148 -2.697,17.61 -7.139,24.88 C 463.1,165 480,184.5 480,207.9 c 0,12.5 -4.893,23.78 -12.72,32.32 C 492.2,241.9 512,262.5 512,287.9 Z"
     fill="#ff0000"
     id="path2" />
</svg>
