<?xml version="1.0" encoding="UTF-8" standalone="no"?>
<svg
   width="34"
   height="34"
   viewBox="0 0 34 34"
   fill="none"
   version="1.1"
   id="svg8"
   sodipodi:docname="dotMenu.svg"
   inkscape:version="1.1.2 (b8e25be833, 2022-02-05)"
   xmlns:inkscape="http://www.inkscape.org/namespaces/inkscape"
   xmlns:sodipodi="http://sodipodi.sourceforge.net/DTD/sodipodi-0.dtd"
   xmlns="http://www.w3.org/2000/svg"
   xmlns:svg="http://www.w3.org/2000/svg">
  <defs
     id="defs12" />
  <sodipodi:namedview
     id="namedview10"
     pagecolor="#505050"
     bordercolor="#ffffff"
     borderopacity="1"
     inkscape:pageshadow="0"
     inkscape:pageopacity="0"
     inkscape:pagecheckerboard="1"
     showgrid="false"
     width="34px"
     inkscape:zoom="7.5078103"
     inkscape:cx="12.453698"
     inkscape:cy="25.440174"
     inkscape:window-width="1024"
     inkscape:window-height="547"
     inkscape:window-x="-8"
     inkscape:window-y="-8"
     inkscape:window-maximized="1"
     inkscape:current-layer="svg8" />
  <path
     d="m 17.30502,8.706805 c 1.06039,0 1.92,-0.8596096 1.92,-1.9199996 0,-1.06039 -0.85961,-1.92 -1.92,-1.92 -1.06039,0 -1.92,0.85961 -1.92,1.92 0,1.06039 0.85961,1.9199996 1.92,1.9199996 z"
     stroke="#000000"
     stroke-width="1.5"
     stroke-linecap="round"
     stroke-linejoin="round"
     id="path2"
     style="fill:#ffffff;fill-opacity:1;stroke:#ffffff;stroke-opacity:1" />
  <path
     d="m 17.30502,18.786805 c 1.06039,0 1.92,-0.8596 1.92,-1.92 0,-1.0604 -0.85961,-1.92 -1.92,-1.92 -1.06039,0 -1.92,0.8596 -1.92,1.92 0,1.0604 0.85961,1.92 1.92,1.92 z"
     stroke="#000000"
     stroke-width="1.5"
     stroke-linecap="round"
     stroke-linejoin="round"
     id="path4"
     style="stroke:#ffffff;stroke-opacity:1;fill:#ffffff;fill-opacity:1" />
  <path
     d="m 17.30502,28.866805 c 1.06039,0 1.92,-0.8596 1.92,-1.92 0,-1.0604 -0.85961,-1.92 -1.92,-1.92 -1.06039,0 -1.92,0.8596 -1.92,1.92 0,1.0604 0.85961,1.92 1.92,1.92 z"
     stroke="#000000"
     stroke-width="1.5"
     stroke-linecap="round"
     stroke-linejoin="round"
     id="path6"
     style="fill:#ffffff;fill-opacity:1;stroke:#ffffff;stroke-opacity:1" />
</svg>
