<svg width="32" height="31" viewBox="0 0 32 31" fill="none" xmlns="http://www.w3.org/2000/svg">
<path d="M31.02 14.8596L16.6281 0.330892C16.5245 0.226 16.4014 0.142783 16.2659 0.0860043C16.1304 0.0292257 15.9851 0 15.8384 0C15.6917 0 15.5465 0.0292257 15.411 0.0860043C15.2755 0.142783 15.1524 0.226 15.0488 0.330892L0.656877 14.8596C0.237594 15.2832 0 15.8586 0 16.4586C0 17.7047 1.00279 18.7177 2.23618 18.7177H3.75259V29.0848C3.75259 29.7096 4.25223 30.2143 4.87067 30.2143H13.6022V22.3075H17.5156V30.2143H26.8062C27.4246 30.2143 27.9243 29.7096 27.9243 29.0848V18.7177H29.4407C30.0347 18.7177 30.6042 18.4812 31.0235 18.0541C31.8935 17.1716 31.8935 15.7421 31.02 14.8596Z" fill="black"/>
</svg>
