<svg width="32" height="24" viewBox="0 0 32 24" fill="none" xmlns="http://www.w3.org/2000/svg">
<path d="M6 0C4.4087 0 2.88258 0.632141 1.75736 1.75736C0.632141 2.88258 0 4.4087 0 6V18C0 19.5913 0.632141 21.1174 1.75736 22.2426C2.88258 23.3679 4.4087 24 6 24H26C27.5913 24 29.1174 23.3679 30.2426 22.2426C31.3679 21.1174 32 19.5913 32 18V6C32 4.4087 31.3679 2.88258 30.2426 1.75736C29.1174 0.632141 27.5913 0 26 0H6ZM4 6C4 5.46957 4.21071 4.96086 4.58579 4.58579C4.96086 4.21071 5.46957 4 6 4H26C26.5304 4 27.0391 4.21071 27.4142 4.58579C27.7893 4.96086 28 5.46957 28 6V6.68L16 11.824L4 6.68V6ZM4 11.032L15.212 15.836C15.461 15.9427 15.7291 15.9978 16 15.9978C16.2709 15.9978 16.539 15.9427 16.788 15.836L28 11.032V18C28 18.5304 27.7893 19.0391 27.4142 19.4142C27.0391 19.7893 26.5304 20 26 20H6C5.46957 20 4.96086 19.7893 4.58579 19.4142C4.21071 19.0391 4 18.5304 4 18V11.032Z" fill="black"/>
</svg>
